<svg id="레이어_1" data-name="레이어 1" xmlns="http://www.w3.org/2000/svg" viewBox="0 0 26.45 37.15"><defs><style>.cls-1{fill:#eb4e3d;}.cls-2{fill:#fff;}</style></defs><title>빨강</title><path class="cls-1" d="M26.45,12.55C26.45,5.62,20.53,0,13.22,0S0,5.62,0,12.55A12.05,12.05,0,0,0,2,19.1s0,0,0,0L3.7,22.05,12.41,36.7a1,1,0,0,0,1.63,0L24.48,19.14s0,0,0,0A12.05,12.05,0,0,0,26.45,12.55Z" transform="translate(0 0)"/><ellipse class="cls-2" cx="13.23" cy="12.96" rx="11.09" ry="10.53"/><path class="cls-1" d="M11.68,15.14c.48,0,.82,0,1.17,0a1.4,1.4,0,0,0,1.39-1.25c.12-1.19.2-2.39.24-3.58A1.35,1.35,0,0,0,13.11,9a1.33,1.33,0,0,0-1.32,1.21,1.17,1.17,0,0,0,1.13,1.34c1.24,0,.61.9.72,1.4s-.37.68-.86.7A3.17,3.17,0,0,1,10,8.94a3.9,3.9,0,0,1,4.21-1.87,3.11,3.11,0,0,1,2.71,3.23,22.48,22.48,0,0,1-.2,4.27,3.66,3.66,0,0,1-4,2.72c-.68-.09-1.11-.33-1-1.08A7.6,7.6,0,0,0,11.68,15.14Z" transform="translate(0 0)"/></svg>